<?xml version="1.0" ?><!DOCTYPE svg  PUBLIC '-//W3C//DTD SVG 1.1//EN'  'http://www.w3.org/Graphics/SVG/1.1/DTD/svg11.dtd'><svg height="512px" style="shape-rendering:geometricPrecision; text-rendering:geometricPrecision; image-rendering:optimizeQuality; fill-rule:evenodd; clip-rule:evenodd" version="1.1" viewBox="0 0 512000 512000" width="512px" xml:space="preserve" xmlns="http://www.w3.org/2000/svg" xmlns:xlink="http://www.w3.org/1999/xlink"><defs><style type="text/css">
   <![CDATA[
    .fil0 {fill:#FEFEFE}
    .fil1 {fill:#2B2A29}
   ]]>
  </style></defs><g id="Layer_x0020_1"><path class="fil0" d="M522584 518222c-2385,-1513 -6599,-878 -9426,-861 -109949,656 -221795,4 -331792,4 -334931,0 -669862,0 -1004793,0 -3430,0 -6860,11 -10290,-1 -3913,-14 -6309,-469 -9691,596 -141,45 -412,145 -595,262l1366587 0z"/><path class="fil0" d="M522584 -826003l-1366587 0c1048,665 -8,335 1885,686l7541 175c109949,-656 221795,-4 331792,-4l1004793 0c4178,0 16159,609 19981,-596 141,-45 412,-145 595,-261z"/><g id="_467020320"><path class="fil0" d="M522584 518222c-2385,-1513 -6599,-878 -9426,-861 -109949,656 -221795,4 -331792,4 -334931,0 -669862,0 -1004793,0 -3430,0 -6860,11 -10290,-1 -3913,-14 -6309,-469 -9691,596 -141,45 -412,145 -595,262l1366587 0z"/><path class="fil0" d="M522584 -826003l-1366587 0c1048,665 -8,335 1885,686l7541 175c109949,-656 221795,-4 331792,-4l1004793 0c4178,0 16159,609 19981,-596 141,-45 412,-145 595,-261z"/></g><g id="_467584904"><path class="fil0" d="M1356003 1338003c-3840,-2435 -10624,-1413 -15176,-1385 -177001,1055 -357058,6 -534135,6 -539190,0 -1078380,0 -1617571,0 -5520,0 -11043,17 -16564,-2 -6300,-22 -10159,-755 -15601,961 -227,72 -664,234 -959,420l2200006 0z"/><path class="fil0" d="M1356003 -826003l-2200006 0c1687,1070 -14,541 3034,1106l12142 280c177001,-1055 357058,-6 534135,-6l1617571 0c6725,0 26013,981 32165,-959 227,-72 664,-234 959,-420z"/></g><g id="_467583416"><path class="fil0" d="M1356003 1338003c-3840,-2435 -10624,-1413 -15176,-1385 -177001,1055 -357058,6 -534135,6 -539190,0 -1078380,0 -1617571,0 -5520,0 -11043,17 -16564,-2 -6300,-22 -10159,-755 -15601,961 -227,72 -664,234 -959,420l2200006 0z"/><path class="fil0" d="M1356003 -826003l-2200006 0c1687,1070 -14,541 3034,1106l12142 280c177001,-1055 357058,-6 534135,-6l1617571 0c6725,0 26013,981 32165,-959 227,-72 664,-234 959,-420z"/></g><path class="fil0" d="M1356003 1338003c-1332,-846 12,-428 -2398,-874 -8554,-1585 -1913702,470 -2190036,-280l-6814 822c-180,56 -526,184 -758,332l2200006 0z"/><path class="fil1" d="M54330 11102l403341 0c23740,0 43227,19488 43227,43227l0 403223c0,23858 -19488,43345 -43227,43345l-403341 0c-23740,0 -43227,-19488 -43227,-43345l0 -403223c0,-23740 19488,-43227 43227,-43227zm62421 180741l24160 5577 507 116605 -24749 4711 83 17793 78854 352 -8 -17952 -24554 -4854c-950,-18878 -180,-39487 -180,-58414 0,-20061 -3669,-39656 7553,-50906 11350,-11376 62869,-28524 62869,36064l0 70497c-1593,5420 -15989,5820 -25285,6986l0 18978 78493 0 905 -19078 -24326 -3860 -315 -77233c0,-22558 12484,-42062 34896,-42719 27396,-803 34883,16981 34883,42719l-241 77170 -24370 4097 -30 18904 79435 0 -39 -18978c-8688,-1101 -23575,-1754 -24974,-6986 -4088,-15285 24074,-152279 -63809,-138311 -9124,1450 -18080,5320 -23930,9555 -7072,5120 -12595,14562 -18341,17930 -9560,-29037 -48326,-34279 -73233,-22165 -11812,5745 -14011,10963 -21126,16123l-2102 -21750 -51023 -416 0 19559zm-43996 -158419l366490 0c21614,0 39330,17717 39330,39330l0 366490c0,21614 -17717,39330 -39330,39330l-366490 0c-21614,0 -39330,-17717 -39330,-39330l0 -366490c0,-21614 17717,-39330 39330,-39330z"/></g></svg>